<?xml version="1.0" encoding="utf-8"?>
<!-- Generator: Adobe Illustrator 28.1.0, SVG Export Plug-In . SVG Version: 6.00 Build 0)  -->
<svg version="1.1" id="Capa_1" xmlns="http://www.w3.org/2000/svg" xmlns:xlink="http://www.w3.org/1999/xlink" x="0px" y="0px"
	 viewBox="0 0 406.63 170.51" style="enable-background:new 0 0 406.63 170.51;" xml:space="preserve">
<style type="text/css">
	.st0{fill:#FFFFFF;}
</style>
<path class="st0" d="M276.75,54.26c0.54,0,0.98,0.44,0.98,0.98l0.03,95.87c0,0.54-0.44,0.98-0.98,0.98l-31.42-0.01
	c-0.54,0-0.98-0.44-0.98-0.98l-0.04-95.82c0-0.54,0.44-0.98,0.98-0.98L276.75,54.26z M200.22,54.26c0.65,0,1.22,0.43,1.41,1.05
	l28.58,95.52c0.19,0.63-0.28,1.26-0.94,1.26H194.3c-0.44,0-0.82-0.29-0.94-0.72l-19.54-70.1c-0.12-0.42-0.5-0.72-0.94-0.72h-0.58
	c-0.44,0-0.82,0.29-0.94,0.72l-19.54,70.1c-0.12,0.42-0.5,0.72-0.94,0.72h-34.96c-0.65,0-1.12-0.63-0.94-1.26l28.58-95.52
	c0.19-0.62,0.76-1.05,1.41-1.05H200.22z"/>
<path class="st0" d="M190.43,9.41c9.41-1.24,18.08,5.11,19.38,14.19c1.3,9.08-5.26,17.46-14.67,18.73
	c-9.43,1.27-18.14-5.08-19.44-14.18C174.4,19.05,181,10.65,190.43,9.41z M149.14,9.41c9.4-1.24,18.06,5.12,19.36,14.2
	c1.3,9.09-5.26,17.47-14.65,18.74c-9.42,1.27-18.12-5.08-19.42-14.19C133.12,19.05,139.71,10.65,149.14,9.41z"/>
<path class="st0" d="M328.7,54.2c0.37,0,0.66,0.3,0.66,0.66l0.01,40.84c0,0.63,0.8,0.91,1.19,0.4l31.66-41.23
	c0.31-0.41,0.8-0.65,1.32-0.65l35.03-0.03c0.83,0,1.3,0.96,0.78,1.61l-30.33,38.63c-0.36,0.46-0.38,1.09-0.05,1.57l37.47,54.44
	c0.46,0.66-0.02,1.56-0.82,1.56h-34.97c-0.33,0-0.63-0.16-0.82-0.43l-21.42-30.91l-24.1,30.7c-0.31,0.4-0.8,0.64-1.31,0.64
	l-21.81-0.01c-0.01,0-0.02,0-0.03-0.01l-2.32,0c-0.37,0-0.66-0.3-0.66-0.66l-0.04-96.45c0-0.37,0.3-0.66,0.66-0.67L328.7,54.2z
	 M30.53,54.2c0.37,0,0.66,0.3,0.67,0.66l0.01,40.84c0,0.63,0.8,0.91,1.19,0.4l31.66-41.23c0.31-0.41,0.8-0.65,1.32-0.65l35.03-0.03
	c0.83,0,1.3,0.96,0.78,1.61L70.87,94.44c-0.36,0.46-0.38,1.09-0.05,1.57l37.47,54.44c0.45,0.66-0.02,1.56-0.82,1.56H72.5
	c-0.33,0-0.63-0.16-0.82-0.43l-21.42-30.91l-24.1,30.7c-0.32,0.4-0.8,0.64-1.31,0.64l-21.81-0.01c-0.01,0-0.02,0-0.03-0.01l-2.32,0
	c-0.37,0-0.66-0.3-0.66-0.66L0,54.89c0-0.37,0.3-0.66,0.66-0.67L30.53,54.2z"/>
</svg>
