<svg xmlns="http://www.w3.org/2000/svg" viewBox="1556 88 282 284" aria-hidden="true">
  <path fill="#0037FF" d="M1560.6,230.9c0,27.2,8.1,53.8,23.2,76.4c15.1,22.6,36.6,40.2,61.7,50.6c25.1,10.4,52.8,13.1,79.4,7.8s51.2-18.4,70.4-37.6c19.2-19.2,32.3-43.7,37.6-70.4c5.3-26.7,2.6-54.3-7.8-79.4s-28-46.6-50.6-61.7s-49.2-23.2-76.4-23.2v68.7c13.6,0,26.9,4,38.2,11.6s20.1,18.3,25.3,30.8c5.2,12.6,6.6,26.4,3.9,39.7s-9.2,25.6-18.8,35.2s-21.9,16.2-35.2,18.8s-27.2,1.3-39.7-3.9c-12.6-5.2-23.3-14-30.8-25.3c-7.6-11.3-11.6-24.6-11.6-38.2L1560.6,230.9L1560.6,230.9z"/>
  <ellipse fill="#0037FF" cx="1611.1" cy="143.4" rx="50.5" ry="50"/>
</svg>
