<svg xmlns="http://www.w3.org/2000/svg" viewBox="80 48 284 282" aria-hidden="true">
  <path fill="#0037ff" d="M359.44,187.87c0-27.18-8.06-53.76-23.16-76.36-15.1-22.6-36.57-40.22-61.68-50.62-25.11-10.4-52.75-13.12-79.41-7.82-26.66,5.3-51.15,18.39-70.37,37.61-19.22,19.22-32.31,43.71-37.61,70.37-5.3,26.66-2.58,54.29,7.82,79.41,10.4,25.11,28.02,46.58,50.62,61.68s49.17,23.16,76.36,23.16v-68.72c-13.59,0-26.88-4.03-38.18-11.58-11.3-7.55-20.11-18.28-25.31-30.84-5.2-12.56-6.56-26.37-3.91-39.7,2.65-13.33,9.2-25.57,18.81-35.19s21.86-16.16,35.19-18.81c13.33-2.65,27.15-1.29,39.7,3.91,12.56,5.2,23.29,14.01,30.84,25.31,7.55,11.3,11.58,24.59,11.58,38.18h68.72Z"/>
</svg>
